ISO-10303-21;
HEADER;
/* Generated by software containing ST-Developer
 * from STEP Tools, Inc. (www.steptools.com) 
 */

FILE_DESCRIPTION(
/* description */ (''),
/* implementation_level */ '2;1');

FILE_NAME(
/* name */ 'NanoVTXheatsink.step',
/* time_stamp */ '2023-09-07T22:46:05+08:00',
/* author */ (''),
/* organization */ (''),
/* preprocessor_version */ 'ST-DEVELOPER v20',
/* originating_system */ 'Autodesk Translation Framework v12.9.0.99',
/* authorisation */ '');

FILE_SCHEMA (('AUTOMOTIVE_DESIGN { 1 0 10303 214 3 1 1 }'));
ENDSEC;

DATA;
#10=MECHANICAL_DESIGN_GEOMETRIC_PRESENTATION_REPRESENTATION('',(#13),#1265);
#11=SHAPE_REPRESENTATION_RELATIONSHIP('SRR','None',#1272,#12);
#12=ADVANCED_BREP_SHAPE_REPRESENTATION('',(#14),#1264);
#13=STYLED_ITEM('',(#1281),#14);
#14=MANIFOLD_SOLID_BREP('Body1',#771);
#15=FACE_BOUND('',#85,.T.);
#16=FACE_BOUND('',#86,.T.);
#17=FACE_BOUND('',#87,.T.);
#18=CYLINDRICAL_SURFACE('',#789,1.);
#19=CYLINDRICAL_SURFACE('',#796,1.);
#20=CYLINDRICAL_SURFACE('',#816,0.500475976323203);
#21=CYLINDRICAL_SURFACE('',#823,0.999999999999996);
#22=CYLINDRICAL_SURFACE('',#825,1.);
#23=CYLINDRICAL_SURFACE('',#826,0.999999999999996);
#24=CYLINDRICAL_SURFACE('',#832,1.);
#25=CIRCLE('',#788,1.);
#26=CIRCLE('',#790,1.);
#27=CIRCLE('',#792,0.999999999999996);
#28=CIRCLE('',#793,1.);
#29=CIRCLE('',#794,1.);
#30=CIRCLE('',#795,1.);
#31=CIRCLE('',#797,1.);
#32=CIRCLE('',#800,0.500475976323203);
#33=CIRCLE('',#807,0.999999999999996);
#34=CIRCLE('',#809,0.999999999999996);
#35=CIRCLE('',#815,1.);
#36=CIRCLE('',#817,0.500475976323203);
#37=CIRCLE('',#824,0.999999999999996);
#38=CIRCLE('',#833,1.);
#39=FACE_OUTER_BOUND('',#80,.T.);
#40=FACE_OUTER_BOUND('',#81,.T.);
#41=FACE_OUTER_BOUND('',#82,.T.);
#42=FACE_OUTER_BOUND('',#83,.T.);
#43=FACE_OUTER_BOUND('',#84,.T.);
#44=FACE_OUTER_BOUND('',#88,.T.);
#45=FACE_OUTER_BOUND('',#89,.T.);
#46=FACE_OUTER_BOUND('',#90,.T.);
#47=FACE_OUTER_BOUND('',#91,.T.);
#48=FACE_OUTER_BOUND('',#92,.T.);
#49=FACE_OUTER_BOUND('',#93,.T.);
#50=FACE_OUTER_BOUND('',#94,.T.);
#51=FACE_OUTER_BOUND('',#95,.T.);
#52=FACE_OUTER_BOUND('',#96,.T.);
#53=FACE_OUTER_BOUND('',#97,.T.);
#54=FACE_OUTER_BOUND('',#98,.T.);
#55=FACE_OUTER_BOUND('',#99,.T.);
#56=FACE_OUTER_BOUND('',#100,.T.);
#57=FACE_OUTER_BOUND('',#101,.T.);
#58=FACE_OUTER_BOUND('',#102,.T.);
#59=FACE_OUTER_BOUND('',#103,.T.);
#60=FACE_OUTER_BOUND('',#104,.T.);
#61=FACE_OUTER_BOUND('',#105,.T.);
#62=FACE_OUTER_BOUND('',#106,.T.);
#63=FACE_OUTER_BOUND('',#107,.T.);
#64=FACE_OUTER_BOUND('',#108,.T.);
#65=FACE_OUTER_BOUND('',#109,.T.);
#66=FACE_OUTER_BOUND('',#110,.T.);
#67=FACE_OUTER_BOUND('',#111,.T.);
#68=FACE_OUTER_BOUND('',#112,.T.);
#69=FACE_OUTER_BOUND('',#113,.T.);
#70=FACE_OUTER_BOUND('',#114,.T.);
#71=FACE_OUTER_BOUND('',#115,.T.);
#72=FACE_OUTER_BOUND('',#116,.T.);
#73=FACE_OUTER_BOUND('',#117,.T.);
#74=FACE_OUTER_BOUND('',#118,.T.);
#75=FACE_OUTER_BOUND('',#119,.T.);
#76=FACE_OUTER_BOUND('',#120,.T.);
#77=FACE_OUTER_BOUND('',#121,.T.);
#78=FACE_OUTER_BOUND('',#122,.T.);
#79=FACE_OUTER_BOUND('',#123,.T.);
#80=EDGE_LOOP('',(#484,#485,#486,#487));
#81=EDGE_LOOP('',(#488,#489,#490,#491));
#82=EDGE_LOOP('',(#492));
#83=EDGE_LOOP('',(#493,#494,#495,#496));
#84=EDGE_LOOP('',(#497,#498,#499,#500,#501,#502,#503,#504,#505,#506,#507,
#508,#509,#510,#511,#512));
#85=EDGE_LOOP('',(#513));
#86=EDGE_LOOP('',(#514));
#87=EDGE_LOOP('',(#515));
#88=EDGE_LOOP('',(#516,#517,#518,#519));
#89=EDGE_LOOP('',(#520));
#90=EDGE_LOOP('',(#521,#522,#523,#524,#525));
#91=EDGE_LOOP('',(#526,#527,#528,#529));
#92=EDGE_LOOP('',(#530,#531,#532,#533,#534,#535,#536,#537));
#93=EDGE_LOOP('',(#538,#539,#540,#541));
#94=EDGE_LOOP('',(#542,#543,#544,#545));
#95=EDGE_LOOP('',(#546,#547,#548,#549));
#96=EDGE_LOOP('',(#550,#551,#552,#553,#554,#555,#556));
#97=EDGE_LOOP('',(#557,#558,#559,#560,#561,#562,#563));
#98=EDGE_LOOP('',(#564,#565,#566,#567,#568,#569,#570,#571,#572));
#99=EDGE_LOOP('',(#573,#574,#575,#576));
#100=EDGE_LOOP('',(#577,#578,#579,#580));
#101=EDGE_LOOP('',(#581,#582,#583,#584,#585,#586,#587,#588));
#102=EDGE_LOOP('',(#589,#590,#591,#592,#593,#594,#595));
#103=EDGE_LOOP('',(#596,#597,#598,#599));
#104=EDGE_LOOP('',(#600,#601,#602,#603));
#105=EDGE_LOOP('',(#604,#605,#606,#607,#608,#609));
#106=EDGE_LOOP('',(#610,#611,#612,#613,#614,#615,#616,#617));
#107=EDGE_LOOP('',(#618,#619,#620,#621,#622,#623,#624));
#108=EDGE_LOOP('',(#625,#626,#627,#628));
#109=EDGE_LOOP('',(#629,#630,#631,#632));
#110=EDGE_LOOP('',(#633,#634,#635,#636));
#111=EDGE_LOOP('',(#637,#638,#639,#640));
#112=EDGE_LOOP('',(#641,#642,#643,#644));
#113=EDGE_LOOP('',(#645,#646,#647,#648,#649,#650,#651,#652,#653,#654));
#114=EDGE_LOOP('',(#655,#656,#657,#658));
#115=EDGE_LOOP('',(#659,#660,#661,#662));
#116=EDGE_LOOP('',(#663,#664,#665));
#117=EDGE_LOOP('',(#666,#667,#668,#669));
#118=EDGE_LOOP('',(#670));
#119=EDGE_LOOP('',(#671,#672,#673,#674));
#120=EDGE_LOOP('',(#675,#676,#677,#678));
#121=EDGE_LOOP('',(#679,#680,#681,#682,#683));
#122=EDGE_LOOP('',(#684,#685,#686,#687,#688,#689,#690,#691));
#123=EDGE_LOOP('',(#692,#693,#694,#695));
#124=LINE('',#1048,#216);
#125=LINE('',#1050,#217);
#126=LINE('',#1052,#218);
#127=LINE('',#1053,#219);
#128=LINE('',#1057,#220);
#129=LINE('',#1059,#221);
#130=LINE('',#1061,#222);
#131=LINE('',#1062,#223);
#132=LINE('',#1068,#224);
#133=LINE('',#1072,#225);
#134=LINE('',#1074,#226);
#135=LINE('',#1076,#227);
#136=LINE('',#1078,#228);
#137=LINE('',#1082,#229);
#138=LINE('',#1084,#230);
#139=LINE('',#1086,#231);
#140=LINE('',#1088,#232);
#141=LINE('',#1090,#233);
#142=LINE('',#1092,#234);
#143=LINE('',#1094,#235);
#144=LINE('',#1096,#236);
#145=LINE('',#1099,#237);
#146=LINE('',#1107,#238);
#147=LINE('',#1111,#239);
#148=LINE('',#1115,#240);
#149=LINE('',#1116,#241);
#150=LINE('',#1119,#242);
#151=LINE('',#1121,#243);
#152=LINE('',#1122,#244);
#153=LINE('',#1125,#245);
#154=LINE('',#1127,#246);
#155=LINE('',#1129,#247);
#156=LINE('',#1131,#248);
#157=LINE('',#1133,#249);
#158=LINE('',#1134,#250);
#159=LINE('',#1138,#251);
#160=LINE('',#1140,#252);
#161=LINE('',#1142,#253);
#162=LINE('',#1143,#254);
#163=LINE('',#1147,#255);
#164=LINE('',#1149,#256);
#165=LINE('',#1151,#257);
#166=LINE('',#1152,#258);
#167=LINE('',#1154,#259);
#168=LINE('',#1155,#260);
#169=LINE('',#1158,#261);
#170=LINE('',#1160,#262);
#171=LINE('',#1162,#263);
#172=LINE('',#1164,#264);
#173=LINE('',#1167,#265);
#174=LINE('',#1170,#266);
#175=LINE('',#1174,#267);
#176=LINE('',#1176,#268);
#177=LINE('',#1178,#269);
#178=LINE('',#1179,#270);
#179=LINE('',#1182,#271);
#180=LINE('',#1183,#272);
#181=LINE('',#1184,#273);
#182=LINE('',#1187,#274);
#183=LINE('',#1189,#275);
#184=LINE('',#1190,#276);
#185=LINE('',#1192,#277);
#186=LINE('',#1193,#278);
#187=LINE('',#1196,#279);
#188=LINE('',#1198,#280);
#189=LINE('',#1199,#281);
#190=LINE('',#1204,#282);
#191=LINE('',#1205,#283);
#192=LINE('',#1206,#284);
#193=LINE('',#1209,#285);
#194=LINE('',#1212,#286);
#195=LINE('',#1215,#287);
#196=LINE('',#1216,#288);
#197=LINE('',#1219,#289);
#198=LINE('',#1220,#290);
#199=LINE('',#1222,#291);
#200=LINE('',#1223,#292);
#201=LINE('',#1224,#293);
#202=LINE('',#1227,#294);
#203=LINE('',#1228,#295);
#204=LINE('',#1230,#296);
#205=LINE('',#1233,#297);
#206=LINE('',#1236,#298);
#207=LINE('',#1237,#299);
#208=LINE('',#1239,#300);
#209=LINE('',#1242,#301);
#210=LINE('',#1245,#302);
#211=LINE('',#1246,#303);
#212=LINE('',#1248,#304);
#213=LINE('',#1249,#305);
#214=LINE('',#1254,#306);
#215=LINE('',#1260,#307);
#216=VECTOR('',#844,10.);
#217=VECTOR('',#845,10.);
#218=VECTOR('',#846,10.);
#219=VECTOR('',#847,10.);
#220=VECTOR('',#850,10.);
#221=VECTOR('',#851,10.);
#222=VECTOR('',#852,10.);
#223=VECTOR('',#853,10.);
#224=VECTOR('',#860,1.);
#225=VECTOR('',#865,10.);
#226=VECTOR('',#866,10.);
#227=VECTOR('',#867,10.);
#228=VECTOR('',#868,10.);
#229=VECTOR('',#871,10.);
#230=VECTOR('',#872,10.);
#231=VECTOR('',#873,10.);
#232=VECTOR('',#874,10.);
#233=VECTOR('',#875,10.);
#234=VECTOR('',#876,10.);
#235=VECTOR('',#877,10.);
#236=VECTOR('',#878,10.);
#237=VECTOR('',#881,10.);
#238=VECTOR('',#890,1.);
#239=VECTOR('',#895,10.);
#240=VECTOR('',#898,10.);
#241=VECTOR('',#899,10.);
#242=VECTOR('',#902,10.);
#243=VECTOR('',#903,10.);
#244=VECTOR('',#904,10.);
#245=VECTOR('',#907,10.);
#246=VECTOR('',#908,10.);
#247=VECTOR('',#909,10.);
#248=VECTOR('',#910,10.);
#249=VECTOR('',#911,10.);
#250=VECTOR('',#912,10.);
#251=VECTOR('',#915,10.);
#252=VECTOR('',#916,10.);
#253=VECTOR('',#917,10.);
#254=VECTOR('',#918,10.);
#255=VECTOR('',#921,10.);
#256=VECTOR('',#922,10.);
#257=VECTOR('',#923,10.);
#258=VECTOR('',#924,10.);
#259=VECTOR('',#927,10.);
#260=VECTOR('',#928,10.);
#261=VECTOR('',#931,10.);
#262=VECTOR('',#932,10.);
#263=VECTOR('',#933,10.);
#264=VECTOR('',#934,10.);
#265=VECTOR('',#937,10.);
#266=VECTOR('',#940,10.);
#267=VECTOR('',#943,10.);
#268=VECTOR('',#944,10.);
#269=VECTOR('',#945,10.);
#270=VECTOR('',#946,10.);
#271=VECTOR('',#949,10.);
#272=VECTOR('',#950,10.);
#273=VECTOR('',#951,10.);
#274=VECTOR('',#954,10.);
#275=VECTOR('',#955,10.);
#276=VECTOR('',#956,10.);
#277=VECTOR('',#959,10.);
#278=VECTOR('',#960,10.);
#279=VECTOR('',#963,10.);
#280=VECTOR('',#964,10.);
#281=VECTOR('',#965,10.);
#282=VECTOR('',#970,10.);
#283=VECTOR('',#971,10.);
#284=VECTOR('',#972,10.);
#285=VECTOR('',#975,10.);
#286=VECTOR('',#978,10.);
#287=VECTOR('',#981,10.);
#288=VECTOR('',#982,10.);
#289=VECTOR('',#985,10.);
#290=VECTOR('',#986,10.);
#291=VECTOR('',#989,10.);
#292=VECTOR('',#990,10.);
#293=VECTOR('',#991,10.);
#294=VECTOR('',#994,10.);
#295=VECTOR('',#995,10.);
#296=VECTOR('',#998,10.);
#297=VECTOR('',#1001,10.);
#298=VECTOR('',#1006,10.);
#299=VECTOR('',#1007,10.);
#300=VECTOR('',#1010,10.);
#301=VECTOR('',#1015,10.);
#302=VECTOR('',#1018,10.);
#303=VECTOR('',#1019,10.);
#304=VECTOR('',#1022,10.);
#305=VECTOR('',#1023,10.);
#306=VECTOR('',#1030,1.);
#307=VECTOR('',#1041,10.);
#308=VERTEX_POINT('',#1046);
#309=VERTEX_POINT('',#1047);
#310=VERTEX_POINT('',#1049);
#311=VERTEX_POINT('',#1051);
#312=VERTEX_POINT('',#1055);
#313=VERTEX_POINT('',#1056);
#314=VERTEX_POINT('',#1058);
#315=VERTEX_POINT('',#1060);
#316=VERTEX_POINT('',#1064);
#317=VERTEX_POINT('',#1067);
#318=VERTEX_POINT('',#1071);
#319=VERTEX_POINT('',#1073);
#320=VERTEX_POINT('',#1075);
#321=VERTEX_POINT('',#1077);
#322=VERTEX_POINT('',#1079);
#323=VERTEX_POINT('',#1081);
#324=VERTEX_POINT('',#1083);
#325=VERTEX_POINT('',#1085);
#326=VERTEX_POINT('',#1087);
#327=VERTEX_POINT('',#1089);
#328=VERTEX_POINT('',#1091);
#329=VERTEX_POINT('',#1093);
#330=VERTEX_POINT('',#1095);
#331=VERTEX_POINT('',#1097);
#332=VERTEX_POINT('',#1100);
#333=VERTEX_POINT('',#1102);
#334=VERTEX_POINT('',#1105);
#335=VERTEX_POINT('',#1110);
#336=VERTEX_POINT('',#1112);
#337=VERTEX_POINT('',#1114);
#338=VERTEX_POINT('',#1118);
#339=VERTEX_POINT('',#1120);
#340=VERTEX_POINT('',#1124);
#341=VERTEX_POINT('',#1126);
#342=VERTEX_POINT('',#1128);
#343=VERTEX_POINT('',#1130);
#344=VERTEX_POINT('',#1132);
#345=VERTEX_POINT('',#1136);
#346=VERTEX_POINT('',#1137);
#347=VERTEX_POINT('',#1139);
#348=VERTEX_POINT('',#1141);
#349=VERTEX_POINT('',#1145);
#350=VERTEX_POINT('',#1146);
#351=VERTEX_POINT('',#1148);
#352=VERTEX_POINT('',#1150);
#353=VERTEX_POINT('',#1157);
#354=VERTEX_POINT('',#1159);
#355=VERTEX_POINT('',#1161);
#356=VERTEX_POINT('',#1163);
#357=VERTEX_POINT('',#1165);
#358=VERTEX_POINT('',#1169);
#359=VERTEX_POINT('',#1171);
#360=VERTEX_POINT('',#1173);
#361=VERTEX_POINT('',#1175);
#362=VERTEX_POINT('',#1177);
#363=VERTEX_POINT('',#1181);
#364=VERTEX_POINT('',#1186);
#365=VERTEX_POINT('',#1188);
#366=VERTEX_POINT('',#1195);
#367=VERTEX_POINT('',#1197);
#368=VERTEX_POINT('',#1201);
#369=VERTEX_POINT('',#1202);
#370=VERTEX_POINT('',#1208);
#371=VERTEX_POINT('',#1210);
#372=VERTEX_POINT('',#1214);
#373=VERTEX_POINT('',#1218);
#374=VERTEX_POINT('',#1226);
#375=VERTEX_POINT('',#1232);
#376=VERTEX_POINT('',#1244);
#377=VERTEX_POINT('',#1252);
#378=EDGE_CURVE('',#308,#309,#124,.T.);
#379=EDGE_CURVE('',#309,#310,#125,.T.);
#380=EDGE_CURVE('',#311,#310,#126,.T.);
#381=EDGE_CURVE('',#308,#311,#127,.T.);
#382=EDGE_CURVE('',#312,#313,#128,.T.);
#383=EDGE_CURVE('',#313,#314,#129,.T.);
#384=EDGE_CURVE('',#314,#315,#130,.T.);
#385=EDGE_CURVE('',#312,#315,#131,.T.);
#386=EDGE_CURVE('',#316,#316,#25,.T.);
#387=EDGE_CURVE('',#316,#317,#132,.T.);
#388=EDGE_CURVE('',#317,#317,#26,.T.);
#389=EDGE_CURVE('',#308,#318,#133,.T.);
#390=EDGE_CURVE('',#318,#319,#134,.T.);
#391=EDGE_CURVE('',#319,#320,#135,.T.);
#392=EDGE_CURVE('',#320,#321,#136,.T.);
#393=EDGE_CURVE('',#322,#321,#27,.T.);
#394=EDGE_CURVE('',#322,#323,#137,.T.);
#395=EDGE_CURVE('',#323,#324,#138,.T.);
#396=EDGE_CURVE('',#324,#325,#139,.T.);
#397=EDGE_CURVE('',#325,#326,#140,.T.);
#398=EDGE_CURVE('',#326,#327,#141,.T.);
#399=EDGE_CURVE('',#327,#328,#142,.T.);
#400=EDGE_CURVE('',#328,#329,#143,.T.);
#401=EDGE_CURVE('',#329,#330,#144,.T.);
#402=EDGE_CURVE('',#331,#330,#28,.T.);
#403=EDGE_CURVE('',#331,#309,#145,.T.);
#404=EDGE_CURVE('',#332,#332,#29,.T.);
#405=EDGE_CURVE('',#333,#333,#30,.T.);
#406=EDGE_CURVE('',#334,#334,#31,.T.);
#407=EDGE_CURVE('',#334,#333,#146,.T.);
#408=EDGE_CURVE('',#310,#335,#147,.T.);
#409=EDGE_CURVE('',#335,#336,#32,.T.);
#410=EDGE_CURVE('',#336,#337,#148,.T.);
#411=EDGE_CURVE('',#337,#311,#149,.T.);
#412=EDGE_CURVE('',#313,#338,#150,.T.);
#413=EDGE_CURVE('',#338,#339,#151,.T.);
#414=EDGE_CURVE('',#339,#314,#152,.T.);
#415=EDGE_CURVE('',#340,#339,#153,.T.);
#416=EDGE_CURVE('',#341,#340,#154,.T.);
#417=EDGE_CURVE('',#342,#341,#155,.F.);
#418=EDGE_CURVE('',#342,#343,#156,.T.);
#419=EDGE_CURVE('',#344,#343,#157,.T.);
#420=EDGE_CURVE('',#315,#344,#158,.T.);
#421=EDGE_CURVE('',#345,#346,#159,.T.);
#422=EDGE_CURVE('',#347,#345,#160,.T.);
#423=EDGE_CURVE('',#347,#348,#161,.T.);
#424=EDGE_CURVE('',#346,#348,#162,.T.);
#425=EDGE_CURVE('',#349,#350,#163,.T.);
#426=EDGE_CURVE('',#351,#349,#164,.T.);
#427=EDGE_CURVE('',#351,#352,#165,.T.);
#428=EDGE_CURVE('',#350,#352,#166,.T.);
#429=EDGE_CURVE('',#348,#351,#167,.T.);
#430=EDGE_CURVE('',#352,#347,#168,.T.);
#431=EDGE_CURVE('',#346,#353,#169,.T.);
#432=EDGE_CURVE('',#353,#354,#170,.T.);
#433=EDGE_CURVE('',#355,#354,#171,.T.);
#434=EDGE_CURVE('',#356,#355,#172,.T.);
#435=EDGE_CURVE('',#356,#357,#33,.T.);
#436=EDGE_CURVE('',#357,#345,#173,.T.);
#437=EDGE_CURVE('',#350,#358,#174,.T.);
#438=EDGE_CURVE('',#358,#359,#34,.T.);
#439=EDGE_CURVE('',#359,#360,#175,.T.);
#440=EDGE_CURVE('',#360,#361,#176,.T.);
#441=EDGE_CURVE('',#361,#362,#177,.T.);
#442=EDGE_CURVE('',#362,#349,#178,.T.);
#443=EDGE_CURVE('',#357,#363,#179,.T.);
#444=EDGE_CURVE('',#363,#323,#180,.T.);
#445=EDGE_CURVE('',#322,#358,#181,.T.);
#446=EDGE_CURVE('',#328,#364,#182,.T.);
#447=EDGE_CURVE('',#364,#365,#183,.T.);
#448=EDGE_CURVE('',#365,#329,#184,.T.);
#449=EDGE_CURVE('',#326,#355,#185,.T.);
#450=EDGE_CURVE('',#354,#327,#186,.T.);
#451=EDGE_CURVE('',#366,#362,#187,.T.);
#452=EDGE_CURVE('',#367,#366,#188,.F.);
#453=EDGE_CURVE('',#367,#353,#189,.T.);
#454=EDGE_CURVE('',#368,#369,#35,.T.);
#455=EDGE_CURVE('',#369,#365,#190,.T.);
#456=EDGE_CURVE('',#340,#364,#191,.T.);
#457=EDGE_CURVE('',#368,#338,#192,.T.);
#458=EDGE_CURVE('',#370,#335,#193,.T.);
#459=EDGE_CURVE('',#371,#370,#36,.T.);
#460=EDGE_CURVE('',#336,#371,#194,.T.);
#461=EDGE_CURVE('',#372,#371,#195,.T.);
#462=EDGE_CURVE('',#337,#372,#196,.T.);
#463=EDGE_CURVE('',#373,#372,#197,.T.);
#464=EDGE_CURVE('',#318,#373,#198,.T.);
#465=EDGE_CURVE('',#343,#373,#199,.T.);
#466=EDGE_CURVE('',#366,#342,#200,.F.);
#467=EDGE_CURVE('',#319,#361,#201,.T.);
#468=EDGE_CURVE('',#370,#374,#202,.T.);
#469=EDGE_CURVE('',#374,#344,#203,.T.);
#470=EDGE_CURVE('',#320,#360,#204,.T.);
#471=EDGE_CURVE('',#375,#356,#205,.T.);
#472=EDGE_CURVE('',#363,#375,#37,.T.);
#473=EDGE_CURVE('',#331,#368,#206,.T.);
#474=EDGE_CURVE('',#369,#330,#207,.T.);
#475=EDGE_CURVE('',#359,#321,#208,.T.);
#476=EDGE_CURVE('',#312,#374,#209,.T.);
#477=EDGE_CURVE('',#376,#363,#210,.T.);
#478=EDGE_CURVE('',#324,#376,#211,.T.);
#479=EDGE_CURVE('',#375,#376,#212,.T.);
#480=EDGE_CURVE('',#325,#375,#213,.T.);
#481=EDGE_CURVE('',#377,#377,#38,.T.);
#482=EDGE_CURVE('',#377,#332,#214,.T.);
#483=EDGE_CURVE('',#341,#367,#215,.F.);
#484=ORIENTED_EDGE('',*,*,#378,.T.);
#485=ORIENTED_EDGE('',*,*,#379,.T.);
#486=ORIENTED_EDGE('',*,*,#380,.F.);
#487=ORIENTED_EDGE('',*,*,#381,.F.);
#488=ORIENTED_EDGE('',*,*,#382,.T.);
#489=ORIENTED_EDGE('',*,*,#383,.T.);
#490=ORIENTED_EDGE('',*,*,#384,.T.);
#491=ORIENTED_EDGE('',*,*,#385,.F.);
#492=ORIENTED_EDGE('',*,*,#386,.T.);
#493=ORIENTED_EDGE('',*,*,#386,.F.);
#494=ORIENTED_EDGE('',*,*,#387,.T.);
#495=ORIENTED_EDGE('',*,*,#388,.F.);
#496=ORIENTED_EDGE('',*,*,#387,.F.);
#497=ORIENTED_EDGE('',*,*,#389,.T.);
#498=ORIENTED_EDGE('',*,*,#390,.T.);
#499=ORIENTED_EDGE('',*,*,#391,.T.);
#500=ORIENTED_EDGE('',*,*,#392,.T.);
#501=ORIENTED_EDGE('',*,*,#393,.F.);
#502=ORIENTED_EDGE('',*,*,#394,.T.);
#503=ORIENTED_EDGE('',*,*,#395,.T.);
#504=ORIENTED_EDGE('',*,*,#396,.T.);
#505=ORIENTED_EDGE('',*,*,#397,.T.);
#506=ORIENTED_EDGE('',*,*,#398,.T.);
#507=ORIENTED_EDGE('',*,*,#399,.T.);
#508=ORIENTED_EDGE('',*,*,#400,.T.);
#509=ORIENTED_EDGE('',*,*,#401,.T.);
#510=ORIENTED_EDGE('',*,*,#402,.F.);
#511=ORIENTED_EDGE('',*,*,#403,.T.);
#512=ORIENTED_EDGE('',*,*,#378,.F.);
#513=ORIENTED_EDGE('',*,*,#404,.T.);
#514=ORIENTED_EDGE('',*,*,#388,.T.);
#515=ORIENTED_EDGE('',*,*,#405,.T.);
#516=ORIENTED_EDGE('',*,*,#406,.F.);
#517=ORIENTED_EDGE('',*,*,#407,.T.);
#518=ORIENTED_EDGE('',*,*,#405,.F.);
#519=ORIENTED_EDGE('',*,*,#407,.F.);
#520=ORIENTED_EDGE('',*,*,#406,.T.);
#521=ORIENTED_EDGE('',*,*,#408,.T.);
#522=ORIENTED_EDGE('',*,*,#409,.T.);
#523=ORIENTED_EDGE('',*,*,#410,.T.);
#524=ORIENTED_EDGE('',*,*,#411,.T.);
#525=ORIENTED_EDGE('',*,*,#380,.T.);
#526=ORIENTED_EDGE('',*,*,#383,.F.);
#527=ORIENTED_EDGE('',*,*,#412,.T.);
#528=ORIENTED_EDGE('',*,*,#413,.T.);
#529=ORIENTED_EDGE('',*,*,#414,.T.);
#530=ORIENTED_EDGE('',*,*,#414,.F.);
#531=ORIENTED_EDGE('',*,*,#415,.F.);
#532=ORIENTED_EDGE('',*,*,#416,.F.);
#533=ORIENTED_EDGE('',*,*,#417,.F.);
#534=ORIENTED_EDGE('',*,*,#418,.T.);
#535=ORIENTED_EDGE('',*,*,#419,.F.);
#536=ORIENTED_EDGE('',*,*,#420,.F.);
#537=ORIENTED_EDGE('',*,*,#384,.F.);
#538=ORIENTED_EDGE('',*,*,#421,.F.);
#539=ORIENTED_EDGE('',*,*,#422,.F.);
#540=ORIENTED_EDGE('',*,*,#423,.T.);
#541=ORIENTED_EDGE('',*,*,#424,.F.);
#542=ORIENTED_EDGE('',*,*,#425,.F.);
#543=ORIENTED_EDGE('',*,*,#426,.F.);
#544=ORIENTED_EDGE('',*,*,#427,.T.);
#545=ORIENTED_EDGE('',*,*,#428,.F.);
#546=ORIENTED_EDGE('',*,*,#427,.F.);
#547=ORIENTED_EDGE('',*,*,#429,.F.);
#548=ORIENTED_EDGE('',*,*,#423,.F.);
#549=ORIENTED_EDGE('',*,*,#430,.F.);
#550=ORIENTED_EDGE('',*,*,#421,.T.);
#551=ORIENTED_EDGE('',*,*,#431,.T.);
#552=ORIENTED_EDGE('',*,*,#432,.T.);
#553=ORIENTED_EDGE('',*,*,#433,.F.);
#554=ORIENTED_EDGE('',*,*,#434,.F.);
#555=ORIENTED_EDGE('',*,*,#435,.T.);
#556=ORIENTED_EDGE('',*,*,#436,.T.);
#557=ORIENTED_EDGE('',*,*,#425,.T.);
#558=ORIENTED_EDGE('',*,*,#437,.T.);
#559=ORIENTED_EDGE('',*,*,#438,.T.);
#560=ORIENTED_EDGE('',*,*,#439,.T.);
#561=ORIENTED_EDGE('',*,*,#440,.T.);
#562=ORIENTED_EDGE('',*,*,#441,.T.);
#563=ORIENTED_EDGE('',*,*,#442,.T.);
#564=ORIENTED_EDGE('',*,*,#428,.T.);
#565=ORIENTED_EDGE('',*,*,#430,.T.);
#566=ORIENTED_EDGE('',*,*,#422,.T.);
#567=ORIENTED_EDGE('',*,*,#436,.F.);
#568=ORIENTED_EDGE('',*,*,#443,.T.);
#569=ORIENTED_EDGE('',*,*,#444,.T.);
#570=ORIENTED_EDGE('',*,*,#394,.F.);
#571=ORIENTED_EDGE('',*,*,#445,.T.);
#572=ORIENTED_EDGE('',*,*,#437,.F.);
#573=ORIENTED_EDGE('',*,*,#400,.F.);
#574=ORIENTED_EDGE('',*,*,#446,.T.);
#575=ORIENTED_EDGE('',*,*,#447,.T.);
#576=ORIENTED_EDGE('',*,*,#448,.T.);
#577=ORIENTED_EDGE('',*,*,#398,.F.);
#578=ORIENTED_EDGE('',*,*,#449,.T.);
#579=ORIENTED_EDGE('',*,*,#433,.T.);
#580=ORIENTED_EDGE('',*,*,#450,.T.);
#581=ORIENTED_EDGE('',*,*,#426,.T.);
#582=ORIENTED_EDGE('',*,*,#442,.F.);
#583=ORIENTED_EDGE('',*,*,#451,.F.);
#584=ORIENTED_EDGE('',*,*,#452,.F.);
#585=ORIENTED_EDGE('',*,*,#453,.T.);
#586=ORIENTED_EDGE('',*,*,#431,.F.);
#587=ORIENTED_EDGE('',*,*,#424,.T.);
#588=ORIENTED_EDGE('',*,*,#429,.T.);
#589=ORIENTED_EDGE('',*,*,#454,.T.);
#590=ORIENTED_EDGE('',*,*,#455,.T.);
#591=ORIENTED_EDGE('',*,*,#447,.F.);
#592=ORIENTED_EDGE('',*,*,#456,.F.);
#593=ORIENTED_EDGE('',*,*,#415,.T.);
#594=ORIENTED_EDGE('',*,*,#413,.F.);
#595=ORIENTED_EDGE('',*,*,#457,.F.);
#596=ORIENTED_EDGE('',*,*,#409,.F.);
#597=ORIENTED_EDGE('',*,*,#458,.F.);
#598=ORIENTED_EDGE('',*,*,#459,.F.);
#599=ORIENTED_EDGE('',*,*,#460,.F.);
#600=ORIENTED_EDGE('',*,*,#410,.F.);
#601=ORIENTED_EDGE('',*,*,#460,.T.);
#602=ORIENTED_EDGE('',*,*,#461,.F.);
#603=ORIENTED_EDGE('',*,*,#462,.F.);
#604=ORIENTED_EDGE('',*,*,#463,.F.);
#605=ORIENTED_EDGE('',*,*,#464,.F.);
#606=ORIENTED_EDGE('',*,*,#389,.F.);
#607=ORIENTED_EDGE('',*,*,#381,.T.);
#608=ORIENTED_EDGE('',*,*,#411,.F.);
#609=ORIENTED_EDGE('',*,*,#462,.T.);
#610=ORIENTED_EDGE('',*,*,#390,.F.);
#611=ORIENTED_EDGE('',*,*,#464,.T.);
#612=ORIENTED_EDGE('',*,*,#465,.F.);
#613=ORIENTED_EDGE('',*,*,#418,.F.);
#614=ORIENTED_EDGE('',*,*,#466,.F.);
#615=ORIENTED_EDGE('',*,*,#451,.T.);
#616=ORIENTED_EDGE('',*,*,#441,.F.);
#617=ORIENTED_EDGE('',*,*,#467,.F.);
#618=ORIENTED_EDGE('',*,*,#459,.T.);
#619=ORIENTED_EDGE('',*,*,#468,.T.);
#620=ORIENTED_EDGE('',*,*,#469,.T.);
#621=ORIENTED_EDGE('',*,*,#419,.T.);
#622=ORIENTED_EDGE('',*,*,#465,.T.);
#623=ORIENTED_EDGE('',*,*,#463,.T.);
#624=ORIENTED_EDGE('',*,*,#461,.T.);
#625=ORIENTED_EDGE('',*,*,#391,.F.);
#626=ORIENTED_EDGE('',*,*,#467,.T.);
#627=ORIENTED_EDGE('',*,*,#440,.F.);
#628=ORIENTED_EDGE('',*,*,#470,.F.);
#629=ORIENTED_EDGE('',*,*,#471,.F.);
#630=ORIENTED_EDGE('',*,*,#472,.F.);
#631=ORIENTED_EDGE('',*,*,#443,.F.);
#632=ORIENTED_EDGE('',*,*,#435,.F.);
#633=ORIENTED_EDGE('',*,*,#473,.F.);
#634=ORIENTED_EDGE('',*,*,#402,.T.);
#635=ORIENTED_EDGE('',*,*,#474,.F.);
#636=ORIENTED_EDGE('',*,*,#454,.F.);
#637=ORIENTED_EDGE('',*,*,#445,.F.);
#638=ORIENTED_EDGE('',*,*,#393,.T.);
#639=ORIENTED_EDGE('',*,*,#475,.F.);
#640=ORIENTED_EDGE('',*,*,#438,.F.);
#641=ORIENTED_EDGE('',*,*,#474,.T.);
#642=ORIENTED_EDGE('',*,*,#401,.F.);
#643=ORIENTED_EDGE('',*,*,#448,.F.);
#644=ORIENTED_EDGE('',*,*,#455,.F.);
#645=ORIENTED_EDGE('',*,*,#458,.T.);
#646=ORIENTED_EDGE('',*,*,#408,.F.);
#647=ORIENTED_EDGE('',*,*,#379,.F.);
#648=ORIENTED_EDGE('',*,*,#403,.F.);
#649=ORIENTED_EDGE('',*,*,#473,.T.);
#650=ORIENTED_EDGE('',*,*,#457,.T.);
#651=ORIENTED_EDGE('',*,*,#412,.F.);
#652=ORIENTED_EDGE('',*,*,#382,.F.);
#653=ORIENTED_EDGE('',*,*,#476,.T.);
#654=ORIENTED_EDGE('',*,*,#468,.F.);
#655=ORIENTED_EDGE('',*,*,#395,.F.);
#656=ORIENTED_EDGE('',*,*,#444,.F.);
#657=ORIENTED_EDGE('',*,*,#477,.F.);
#658=ORIENTED_EDGE('',*,*,#478,.F.);
#659=ORIENTED_EDGE('',*,*,#396,.F.);
#660=ORIENTED_EDGE('',*,*,#478,.T.);
#661=ORIENTED_EDGE('',*,*,#479,.F.);
#662=ORIENTED_EDGE('',*,*,#480,.F.);
#663=ORIENTED_EDGE('',*,*,#479,.T.);
#664=ORIENTED_EDGE('',*,*,#477,.T.);
#665=ORIENTED_EDGE('',*,*,#472,.T.);
#666=ORIENTED_EDGE('',*,*,#481,.F.);
#667=ORIENTED_EDGE('',*,*,#482,.T.);
#668=ORIENTED_EDGE('',*,*,#404,.F.);
#669=ORIENTED_EDGE('',*,*,#482,.F.);
#670=ORIENTED_EDGE('',*,*,#481,.T.);
#671=ORIENTED_EDGE('',*,*,#385,.T.);
#672=ORIENTED_EDGE('',*,*,#420,.T.);
#673=ORIENTED_EDGE('',*,*,#469,.F.);
#674=ORIENTED_EDGE('',*,*,#476,.F.);
#675=ORIENTED_EDGE('',*,*,#475,.T.);
#676=ORIENTED_EDGE('',*,*,#392,.F.);
#677=ORIENTED_EDGE('',*,*,#470,.T.);
#678=ORIENTED_EDGE('',*,*,#439,.F.);
#679=ORIENTED_EDGE('',*,*,#471,.T.);
#680=ORIENTED_EDGE('',*,*,#434,.T.);
#681=ORIENTED_EDGE('',*,*,#449,.F.);
#682=ORIENTED_EDGE('',*,*,#397,.F.);
#683=ORIENTED_EDGE('',*,*,#480,.T.);
#684=ORIENTED_EDGE('',*,*,#483,.F.);
#685=ORIENTED_EDGE('',*,*,#416,.T.);
#686=ORIENTED_EDGE('',*,*,#456,.T.);
#687=ORIENTED_EDGE('',*,*,#446,.F.);
#688=ORIENTED_EDGE('',*,*,#399,.F.);
#689=ORIENTED_EDGE('',*,*,#450,.F.);
#690=ORIENTED_EDGE('',*,*,#432,.F.);
#691=ORIENTED_EDGE('',*,*,#453,.F.);
#692=ORIENTED_EDGE('',*,*,#466,.T.);
#693=ORIENTED_EDGE('',*,*,#417,.T.);
#694=ORIENTED_EDGE('',*,*,#483,.T.);
#695=ORIENTED_EDGE('',*,*,#452,.T.);
#696=PLANE('',#785);
#697=PLANE('',#786);
#698=PLANE('',#787);
#699=PLANE('',#791);
#700=PLANE('',#798);
#701=PLANE('',#799);
#702=PLANE('',#801);
#703=PLANE('',#802);
#704=PLANE('',#803);
#705=PLANE('',#804);
#706=PLANE('',#805);
#707=PLANE('',#806);
#708=PLANE('',#808);
#709=PLANE('',#810);
#710=PLANE('',#811);
#711=PLANE('',#812);
#712=PLANE('',#813);
#713=PLANE('',#814);
#714=PLANE('',#818);
#715=PLANE('',#819);
#716=PLANE('',#820);
#717=PLANE('',#821);
#718=PLANE('',#822);
#719=PLANE('',#827);
#720=PLANE('',#828);
#721=PLANE('',#829);
#722=PLANE('',#830);
#723=PLANE('',#831);
#724=PLANE('',#834);
#725=PLANE('',#835);
#726=PLANE('',#836);
#727=PLANE('',#837);
#728=PLANE('',#838);
#729=PLANE('',#839);
#730=ADVANCED_FACE('',(#39),#696,.F.);
#731=ADVANCED_FACE('',(#40),#697,.T.);
#732=ADVANCED_FACE('',(#41),#698,.T.);
#733=ADVANCED_FACE('',(#42),#18,.T.);
#734=ADVANCED_FACE('',(#43,#15,#16,#17),#699,.T.);
#735=ADVANCED_FACE('',(#44),#19,.T.);
#736=ADVANCED_FACE('',(#45),#700,.T.);
#737=ADVANCED_FACE('',(#46),#701,.T.);
#738=ADVANCED_FACE('',(#47),#702,.T.);
#739=ADVANCED_FACE('',(#48),#703,.T.);
#740=ADVANCED_FACE('',(#49),#704,.F.);
#741=ADVANCED_FACE('',(#50),#705,.F.);
#742=ADVANCED_FACE('',(#51),#706,.F.);
#743=ADVANCED_FACE('',(#52),#707,.T.);
#744=ADVANCED_FACE('',(#53),#708,.T.);
#745=ADVANCED_FACE('',(#54),#709,.T.);
#746=ADVANCED_FACE('',(#55),#710,.T.);
#747=ADVANCED_FACE('',(#56),#711,.T.);
#748=ADVANCED_FACE('',(#57),#712,.T.);
#749=ADVANCED_FACE('',(#58),#713,.T.);
#750=ADVANCED_FACE('',(#59),#20,.F.);
#751=ADVANCED_FACE('',(#60),#714,.T.);
#752=ADVANCED_FACE('',(#61),#715,.F.);
#753=ADVANCED_FACE('',(#62),#716,.T.);
#754=ADVANCED_FACE('',(#63),#717,.T.);
#755=ADVANCED_FACE('',(#64),#718,.T.);
#756=ADVANCED_FACE('',(#65),#21,.F.);
#757=ADVANCED_FACE('',(#66),#22,.F.);
#758=ADVANCED_FACE('',(#67),#23,.F.);
#759=ADVANCED_FACE('',(#68),#719,.T.);
#760=ADVANCED_FACE('',(#69),#720,.T.);
#761=ADVANCED_FACE('',(#70),#721,.T.);
#762=ADVANCED_FACE('',(#71),#722,.T.);
#763=ADVANCED_FACE('',(#72),#723,.T.);
#764=ADVANCED_FACE('',(#73),#24,.T.);
#765=ADVANCED_FACE('',(#74),#724,.T.);
#766=ADVANCED_FACE('',(#75),#725,.T.);
#767=ADVANCED_FACE('',(#76),#726,.T.);
#768=ADVANCED_FACE('',(#77),#727,.T.);
#769=ADVANCED_FACE('',(#78),#728,.T.);
#770=ADVANCED_FACE('',(#79),#729,.F.);
#771=CLOSED_SHELL('',(#730,#731,#732,#733,#734,#735,#736,#737,#738,#739,
#740,#741,#742,#743,#744,#745,#746,#747,#748,#749,#750,#751,#752,#753,#754,
#755,#756,#757,#758,#759,#760,#761,#762,#763,#764,#765,#766,#767,#768,#769,
#770));
#772=DERIVED_UNIT_ELEMENT(#774,1.);
#773=DERIVED_UNIT_ELEMENT(#1267,-3.);
#774=(
MASS_UNIT()
NAMED_UNIT(*)
SI_UNIT(.KILO.,.GRAM.)
);
#775=DERIVED_UNIT((#772,#773));
#776=MEASURE_REPRESENTATION_ITEM('density measure',
POSITIVE_RATIO_MEASURE(7850.),#775);
#777=PROPERTY_DEFINITION_REPRESENTATION(#782,#779);
#778=PROPERTY_DEFINITION_REPRESENTATION(#783,#780);
#779=REPRESENTATION('material name',(#781),#1264);
#780=REPRESENTATION('density',(#776),#1264);
#781=DESCRIPTIVE_REPRESENTATION_ITEM('Steel','Steel');
#782=PROPERTY_DEFINITION('material property','material name',#1274);
#783=PROPERTY_DEFINITION('material property','density of part',#1274);
#784=AXIS2_PLACEMENT_3D('',#1044,#840,#841);
#785=AXIS2_PLACEMENT_3D('',#1045,#842,#843);
#786=AXIS2_PLACEMENT_3D('',#1054,#848,#849);
#787=AXIS2_PLACEMENT_3D('',#1063,#854,#855);
#788=AXIS2_PLACEMENT_3D('',#1065,#856,#857);
#789=AXIS2_PLACEMENT_3D('',#1066,#858,#859);
#790=AXIS2_PLACEMENT_3D('',#1069,#861,#862);
#791=AXIS2_PLACEMENT_3D('',#1070,#863,#864);
#792=AXIS2_PLACEMENT_3D('',#1080,#869,#870);
#793=AXIS2_PLACEMENT_3D('',#1098,#879,#880);
#794=AXIS2_PLACEMENT_3D('',#1101,#882,#883);
#795=AXIS2_PLACEMENT_3D('',#1103,#884,#885);
#796=AXIS2_PLACEMENT_3D('',#1104,#886,#887);
#797=AXIS2_PLACEMENT_3D('',#1106,#888,#889);
#798=AXIS2_PLACEMENT_3D('',#1108,#891,#892);
#799=AXIS2_PLACEMENT_3D('',#1109,#893,#894);
#800=AXIS2_PLACEMENT_3D('',#1113,#896,#897);
#801=AXIS2_PLACEMENT_3D('',#1117,#900,#901);
#802=AXIS2_PLACEMENT_3D('',#1123,#905,#906);
#803=AXIS2_PLACEMENT_3D('',#1135,#913,#914);
#804=AXIS2_PLACEMENT_3D('',#1144,#919,#920);
#805=AXIS2_PLACEMENT_3D('',#1153,#925,#926);
#806=AXIS2_PLACEMENT_3D('',#1156,#929,#930);
#807=AXIS2_PLACEMENT_3D('',#1166,#935,#936);
#808=AXIS2_PLACEMENT_3D('',#1168,#938,#939);
#809=AXIS2_PLACEMENT_3D('',#1172,#941,#942);
#810=AXIS2_PLACEMENT_3D('',#1180,#947,#948);
#811=AXIS2_PLACEMENT_3D('',#1185,#952,#953);
#812=AXIS2_PLACEMENT_3D('',#1191,#957,#958);
#813=AXIS2_PLACEMENT_3D('',#1194,#961,#962);
#814=AXIS2_PLACEMENT_3D('',#1200,#966,#967);
#815=AXIS2_PLACEMENT_3D('',#1203,#968,#969);
#816=AXIS2_PLACEMENT_3D('',#1207,#973,#974);
#817=AXIS2_PLACEMENT_3D('',#1211,#976,#977);
#818=AXIS2_PLACEMENT_3D('',#1213,#979,#980);
#819=AXIS2_PLACEMENT_3D('',#1217,#983,#984);
#820=AXIS2_PLACEMENT_3D('',#1221,#987,#988);
#821=AXIS2_PLACEMENT_3D('',#1225,#992,#993);
#822=AXIS2_PLACEMENT_3D('',#1229,#996,#997);
#823=AXIS2_PLACEMENT_3D('',#1231,#999,#1000);
#824=AXIS2_PLACEMENT_3D('',#1234,#1002,#1003);
#825=AXIS2_PLACEMENT_3D('',#1235,#1004,#1005);
#826=AXIS2_PLACEMENT_3D('',#1238,#1008,#1009);
#827=AXIS2_PLACEMENT_3D('',#1240,#1011,#1012);
#828=AXIS2_PLACEMENT_3D('',#1241,#1013,#1014);
#829=AXIS2_PLACEMENT_3D('',#1243,#1016,#1017);
#830=AXIS2_PLACEMENT_3D('',#1247,#1020,#1021);
#831=AXIS2_PLACEMENT_3D('',#1250,#1024,#1025);
#832=AXIS2_PLACEMENT_3D('',#1251,#1026,#1027);
#833=AXIS2_PLACEMENT_3D('',#1253,#1028,#1029);
#834=AXIS2_PLACEMENT_3D('',#1255,#1031,#1032);
#835=AXIS2_PLACEMENT_3D('',#1256,#1033,#1034);
#836=AXIS2_PLACEMENT_3D('',#1257,#1035,#1036);
#837=AXIS2_PLACEMENT_3D('',#1258,#1037,#1038);
#838=AXIS2_PLACEMENT_3D('',#1259,#1039,#1040);
#839=AXIS2_PLACEMENT_3D('',#1261,#1042,#1043);
#840=DIRECTION('axis',(0.,0.,1.));
#841=DIRECTION('refdir',(1.,0.,0.));
#842=DIRECTION('center_axis',(0.,-1.,0.));
#843=DIRECTION('ref_axis',(1.,0.,0.));
#844=DIRECTION('',(-1.,0.,0.));
#845=DIRECTION('',(0.,0.,1.));
#846=DIRECTION('',(-1.,0.,0.));
#847=DIRECTION('',(0.,0.,1.));
#848=DIRECTION('center_axis',(0.,0.,1.));
#849=DIRECTION('ref_axis',(-1.,0.,0.));
#850=DIRECTION('',(0.,1.,0.));
#851=DIRECTION('',(-1.,0.,0.));
#852=DIRECTION('',(0.,-1.,0.));
#853=DIRECTION('',(-1.,0.,0.));
#854=DIRECTION('center_axis',(0.,0.,1.));
#855=DIRECTION('ref_axis',(-1.,0.,0.));
#856=DIRECTION('center_axis',(0.,0.,1.));
#857=DIRECTION('ref_axis',(-1.,0.,0.));
#858=DIRECTION('center_axis',(0.,0.,1.));
#859=DIRECTION('ref_axis',(-1.,0.,0.));
#860=DIRECTION('',(0.,0.,-1.));
#861=DIRECTION('center_axis',(0.,0.,-1.));
#862=DIRECTION('ref_axis',(-1.,0.,0.));
#863=DIRECTION('center_axis',(0.,0.,1.));
#864=DIRECTION('ref_axis',(1.,0.,0.));
#865=DIRECTION('',(-2.77555756156289E-16,-1.,0.));
#866=DIRECTION('',(1.,0.,0.));
#867=DIRECTION('',(0.,1.,0.));
#868=DIRECTION('',(1.,0.,0.));
#869=DIRECTION('center_axis',(0.,0.,-1.));
#870=DIRECTION('ref_axis',(-1.,0.,0.));
#871=DIRECTION('',(0.,1.,0.));
#872=DIRECTION('',(-1.,0.,0.));
#873=DIRECTION('',(0.,1.,0.));
#874=DIRECTION('',(-1.,0.,0.));
#875=DIRECTION('',(0.,1.,0.));
#876=DIRECTION('',(-1.,-3.03637603844834E-34,0.));
#877=DIRECTION('',(0.,-1.,0.));
#878=DIRECTION('',(-1.,0.,0.));
#879=DIRECTION('center_axis',(0.,0.,-1.));
#880=DIRECTION('ref_axis',(-1.,0.,0.));
#881=DIRECTION('',(0.,-1.,0.));
#882=DIRECTION('center_axis',(0.,0.,-1.));
#883=DIRECTION('ref_axis',(1.,0.,0.));
#884=DIRECTION('center_axis',(0.,0.,-1.));
#885=DIRECTION('ref_axis',(-1.,0.,0.));
#886=DIRECTION('center_axis',(0.,0.,1.));
#887=DIRECTION('ref_axis',(-1.,0.,0.));
#888=DIRECTION('center_axis',(0.,0.,1.));
#889=DIRECTION('ref_axis',(-1.,0.,0.));
#890=DIRECTION('',(0.,0.,-1.));
#891=DIRECTION('center_axis',(0.,0.,1.));
#892=DIRECTION('ref_axis',(-1.,0.,0.));
#893=DIRECTION('center_axis',(0.,0.,1.));
#894=DIRECTION('ref_axis',(-1.,0.,0.));
#895=DIRECTION('',(0.,1.,0.));
#896=DIRECTION('center_axis',(0.,0.,1.));
#897=DIRECTION('ref_axis',(-1.,0.,0.));
#898=DIRECTION('',(1.,0.,0.));
#899=DIRECTION('',(0.,1.,0.));
#900=DIRECTION('center_axis',(0.,-1.,0.));
#901=DIRECTION('ref_axis',(0.,0.,-1.));
#902=DIRECTION('',(0.,0.,1.));
#903=DIRECTION('',(-1.,0.,0.));
#904=DIRECTION('',(0.,0.,-1.));
#905=DIRECTION('center_axis',(-1.,-4.16095975639218E-34,0.));
#906=DIRECTION('ref_axis',(4.16095975639218E-34,-1.,0.));
#907=DIRECTION('',(4.16095975639218E-34,-1.,0.));
#908=DIRECTION('',(0.,0.,1.));
#909=DIRECTION('',(4.16095975639218E-34,-1.,0.));
#910=DIRECTION('',(0.,0.,1.));
#911=DIRECTION('',(4.16095975639218E-34,-1.,0.));
#912=DIRECTION('',(0.,0.,1.));
#913=DIRECTION('center_axis',(0.,1.,0.));
#914=DIRECTION('ref_axis',(1.,0.,0.));
#915=DIRECTION('',(1.,0.,0.));
#916=DIRECTION('',(0.,0.,1.));
#917=DIRECTION('',(1.,0.,0.));
#918=DIRECTION('',(0.,0.,-1.));
#919=DIRECTION('center_axis',(0.,-1.,0.));
#920=DIRECTION('ref_axis',(-1.,0.,0.));
#921=DIRECTION('',(-1.,0.,0.));
#922=DIRECTION('',(0.,0.,1.));
#923=DIRECTION('',(-1.,0.,0.));
#924=DIRECTION('',(0.,0.,-1.));
#925=DIRECTION('center_axis',(0.,0.,-1.));
#926=DIRECTION('ref_axis',(-1.,0.,0.));
#927=DIRECTION('',(0.,-1.,0.));
#928=DIRECTION('',(0.,1.,0.));
#929=DIRECTION('center_axis',(0.,0.,1.));
#930=DIRECTION('ref_axis',(1.,0.,0.));
#931=DIRECTION('',(0.,1.,0.));
#932=DIRECTION('',(-1.,-3.03637603844834E-34,0.));
#933=DIRECTION('',(0.,1.,0.));
#934=DIRECTION('',(-1.,0.,0.));
#935=DIRECTION('center_axis',(0.,0.,-1.));
#936=DIRECTION('ref_axis',(-1.,0.,0.));
#937=DIRECTION('',(0.,-1.,0.));
#938=DIRECTION('center_axis',(0.,0.,1.));
#939=DIRECTION('ref_axis',(1.,0.,0.));
#940=DIRECTION('',(0.,-1.,0.));
#941=DIRECTION('center_axis',(0.,0.,-1.));
#942=DIRECTION('ref_axis',(-1.,0.,0.));
#943=DIRECTION('',(-1.,0.,0.));
#944=DIRECTION('',(0.,-1.,0.));
#945=DIRECTION('',(1.,0.,0.));
#946=DIRECTION('',(0.,1.,0.));
#947=DIRECTION('center_axis',(-1.,0.,0.));
#948=DIRECTION('ref_axis',(0.,-1.,0.));
#949=DIRECTION('',(0.,0.,-1.));
#950=DIRECTION('',(0.,0.,-1.));
#951=DIRECTION('',(0.,0.,1.));
#952=DIRECTION('center_axis',(1.,0.,0.));
#953=DIRECTION('ref_axis',(0.,0.,-1.));
#954=DIRECTION('',(0.,0.,1.));
#955=DIRECTION('',(0.,-1.,0.));
#956=DIRECTION('',(0.,0.,-1.));
#957=DIRECTION('center_axis',(-1.,0.,0.));
#958=DIRECTION('ref_axis',(0.,0.,1.));
#959=DIRECTION('',(0.,0.,1.));
#960=DIRECTION('',(0.,0.,-1.));
#961=DIRECTION('center_axis',(1.,0.,0.));
#962=DIRECTION('ref_axis',(0.,1.,0.));
#963=DIRECTION('',(0.,0.,1.));
#964=DIRECTION('',(0.,1.,0.));
#965=DIRECTION('',(0.,0.,1.));
#966=DIRECTION('center_axis',(0.,0.,1.));
#967=DIRECTION('ref_axis',(1.,0.,0.));
#968=DIRECTION('center_axis',(0.,0.,-1.));
#969=DIRECTION('ref_axis',(-1.,0.,0.));
#970=DIRECTION('',(1.,0.,0.));
#971=DIRECTION('',(1.,0.,0.));
#972=DIRECTION('',(0.,-1.,0.));
#973=DIRECTION('center_axis',(0.,0.,1.));
#974=DIRECTION('ref_axis',(-1.,0.,0.));
#975=DIRECTION('',(0.,0.,-1.));
#976=DIRECTION('center_axis',(0.,0.,-1.));
#977=DIRECTION('ref_axis',(-1.,0.,0.));
#978=DIRECTION('',(0.,0.,1.));
#979=DIRECTION('center_axis',(0.,1.,0.));
#980=DIRECTION('ref_axis',(-1.,0.,0.));
#981=DIRECTION('',(-1.,0.,0.));
#982=DIRECTION('',(0.,0.,1.));
#983=DIRECTION('center_axis',(-1.,0.,0.));
#984=DIRECTION('ref_axis',(0.,0.,1.));
#985=DIRECTION('',(0.,1.,0.));
#986=DIRECTION('',(0.,0.,1.));
#987=DIRECTION('center_axis',(0.,-1.,0.));
#988=DIRECTION('ref_axis',(1.,0.,0.));
#989=DIRECTION('',(1.,0.,0.));
#990=DIRECTION('',(1.,0.,0.));
#991=DIRECTION('',(0.,0.,1.));
#992=DIRECTION('center_axis',(0.,0.,1.));
#993=DIRECTION('ref_axis',(1.,0.,0.));
#994=DIRECTION('',(-1.3872832307449E-16,1.,0.));
#995=DIRECTION('',(-1.,0.,0.));
#996=DIRECTION('center_axis',(-1.,0.,0.));
#997=DIRECTION('ref_axis',(0.,0.,1.));
#998=DIRECTION('',(0.,0.,1.));
#999=DIRECTION('center_axis',(0.,0.,1.));
#1000=DIRECTION('ref_axis',(0.707106781186547,0.707106781186548,0.));
#1001=DIRECTION('',(0.,0.,1.));
#1002=DIRECTION('center_axis',(0.,0.,1.));
#1003=DIRECTION('ref_axis',(-1.,0.,0.));
#1004=DIRECTION('center_axis',(0.,0.,1.));
#1005=DIRECTION('ref_axis',(-1.,0.,0.));
#1006=DIRECTION('',(0.,0.,1.));
#1007=DIRECTION('',(0.,0.,-1.));
#1008=DIRECTION('center_axis',(0.,0.,1.));
#1009=DIRECTION('ref_axis',(0.707106982701144,-0.707106579671894,0.));
#1010=DIRECTION('',(0.,0.,-1.));
#1011=DIRECTION('center_axis',(0.,-1.,0.));
#1012=DIRECTION('ref_axis',(1.,0.,0.));
#1013=DIRECTION('center_axis',(1.,0.,0.));
#1014=DIRECTION('ref_axis',(0.,1.,0.));
#1015=DIRECTION('',(0.,0.,1.));
#1016=DIRECTION('center_axis',(0.,-1.,0.));
#1017=DIRECTION('ref_axis',(1.,0.,0.));
#1018=DIRECTION('',(1.,0.,0.));
#1019=DIRECTION('',(0.,0.,1.));
#1020=DIRECTION('center_axis',(-1.,0.,0.));
#1021=DIRECTION('ref_axis',(0.,-1.,0.));
#1022=DIRECTION('',(0.,-1.,0.));
#1023=DIRECTION('',(0.,0.,1.));
#1024=DIRECTION('center_axis',(0.,0.,1.));
#1025=DIRECTION('ref_axis',(1.,0.,0.));
#1026=DIRECTION('center_axis',(0.,0.,1.));
#1027=DIRECTION('ref_axis',(1.,0.,0.));
#1028=DIRECTION('center_axis',(1.22464679914735E-16,0.,1.));
#1029=DIRECTION('ref_axis',(1.,0.,-1.22464679914735E-16));
#1030=DIRECTION('',(0.,0.,-1.));
#1031=DIRECTION('center_axis',(1.22464679914735E-16,0.,1.));
#1032=DIRECTION('ref_axis',(-1.,0.,1.22464679914735E-16));
#1033=DIRECTION('center_axis',(0.,1.,0.));
#1034=DIRECTION('ref_axis',(-1.,0.,0.));
#1035=DIRECTION('center_axis',(0.,1.,0.));
#1036=DIRECTION('ref_axis',(-1.,0.,0.));
#1037=DIRECTION('center_axis',(0.,-1.,0.));
#1038=DIRECTION('ref_axis',(1.,0.,0.));
#1039=DIRECTION('center_axis',(-3.03637603844834E-34,1.,0.));
#1040=DIRECTION('ref_axis',(-1.,-3.03637603844834E-34,0.));
#1041=DIRECTION('',(-1.,-3.03637603844834E-34,0.));
#1042=DIRECTION('center_axis',(0.,0.,1.));
#1043=DIRECTION('ref_axis',(1.,0.,0.));
#1044=CARTESIAN_POINT('',(0.,0.,0.));
#1045=CARTESIAN_POINT('Origin',(2.,-29.3998153277071,2.));
#1046=CARTESIAN_POINT('',(3.00000002980232,-29.3998153277071,2.));
#1047=CARTESIAN_POINT('',(2.,-29.3998153277071,2.));
#1048=CARTESIAN_POINT('',(3.00000002980232,-29.3998153277071,2.));
#1049=CARTESIAN_POINT('',(2.,-29.3998153277071,3.5));
#1050=CARTESIAN_POINT('',(2.,-29.3998153277071,2.));
#1051=CARTESIAN_POINT('',(3.00000002980232,-29.3998153277071,3.5));
#1052=CARTESIAN_POINT('',(12.1,-29.3998153277071,3.5));
#1053=CARTESIAN_POINT('',(3.00000002980232,-29.3998153277071,2.));
#1054=CARTESIAN_POINT('Origin',(22.2,-16.2,3.5));
#1055=CARTESIAN_POINT('',(2.,-28.1996306554142,3.5));
#1056=CARTESIAN_POINT('',(2.,-23.0000000596046,3.5));
#1057=CARTESIAN_POINT('',(2.,-19.55,3.5));
#1058=CARTESIAN_POINT('',(0.,-23.0000000596046,3.5));
#1059=CARTESIAN_POINT('',(11.1,-23.0000000596046,3.5));
#1060=CARTESIAN_POINT('',(2.77555756156289E-16,-28.1996306554142,3.5));
#1061=CARTESIAN_POINT('',(2.77555756156289E-16,-28.1996306554142,3.5));
#1062=CARTESIAN_POINT('',(12.1,-28.1996306554142,3.5));
#1063=CARTESIAN_POINT('Origin',(22.2,-16.2,3.5));
#1064=CARTESIAN_POINT('',(24.5,-22.9000000000001,3.5));
#1065=CARTESIAN_POINT('Origin',(23.5,-22.9000000000001,3.5));
#1066=CARTESIAN_POINT('Origin',(23.5,-22.9000000000001,2.));
#1067=CARTESIAN_POINT('',(24.5,-22.9000000000001,2.));
#1068=CARTESIAN_POINT('',(24.5,-22.9000000000001,2.));
#1069=CARTESIAN_POINT('Origin',(23.5,-22.9000000000001,2.));
#1070=CARTESIAN_POINT('Origin',(22.2,-16.2,2.));
#1071=CARTESIAN_POINT('',(3.00000005960464,-32.4,2.));
#1072=CARTESIAN_POINT('',(3.00000005960465,-24.3,2.));
#1073=CARTESIAN_POINT('',(31.4,-32.4,2.));
#1074=CARTESIAN_POINT('',(44.4,-32.4,2.));
#1075=CARTESIAN_POINT('',(31.4,-30.4,2.));
#1076=CARTESIAN_POINT('',(31.4,-23.3,2.));
#1077=CARTESIAN_POINT('',(41.400002013893,-30.4,2.));
#1078=CARTESIAN_POINT('',(31.3,-30.4,2.));
#1079=CARTESIAN_POINT('',(42.4,-29.4000014439246,2.));
#1080=CARTESIAN_POINT('Origin',(42.400002013892,-30.4000014439225,2.));
#1081=CARTESIAN_POINT('',(42.4,-3.,2.));
#1082=CARTESIAN_POINT('',(42.4,-9.1,2.));
#1083=CARTESIAN_POINT('',(41.4,-3.,2.));
#1084=CARTESIAN_POINT('',(31.8,-3.,2.));
#1085=CARTESIAN_POINT('',(41.4,-2.,2.));
#1086=CARTESIAN_POINT('',(41.4,-9.1,2.));
#1087=CARTESIAN_POINT('',(32.9,-2.,2.));
#1088=CARTESIAN_POINT('',(31.3,-2.,2.));
#1089=CARTESIAN_POINT('',(32.9,0.,2.));
#1090=CARTESIAN_POINT('',(32.9,-8.1,2.));
#1091=CARTESIAN_POINT('',(17.0000000596046,0.,2.));
#1092=CARTESIAN_POINT('',(0.,0.,2.));
#1093=CARTESIAN_POINT('',(17.0000000596046,-2.,2.));
#1094=CARTESIAN_POINT('',(17.0000000596046,-9.1,2.));
#1095=CARTESIAN_POINT('',(3.00000002980232,-2.00000002980232,2.));
#1096=CARTESIAN_POINT('',(13.1000000298023,-2.,2.));
#1097=CARTESIAN_POINT('',(2.,-3.00000002980232,2.));
#1098=CARTESIAN_POINT('Origin',(2.00000002980232,-2.00000002980232,2.));
#1099=CARTESIAN_POINT('',(2.,-10.1000000298023,2.));
#1100=CARTESIAN_POINT('',(35.4000000000001,-8.00000000000002,2.));
#1101=CARTESIAN_POINT('Origin',(36.4000000000001,-8.00000000000002,2.));
#1102=CARTESIAN_POINT('',(11.,-13.,2.));
#1103=CARTESIAN_POINT('Origin',(10.,-13.,2.));
#1104=CARTESIAN_POINT('Origin',(10.,-13.,2.));
#1105=CARTESIAN_POINT('',(11.,-13.,3.5));
#1106=CARTESIAN_POINT('Origin',(10.,-13.,3.5));
#1107=CARTESIAN_POINT('',(11.,-13.,2.));
#1108=CARTESIAN_POINT('Origin',(10.,-13.,3.5));
#1109=CARTESIAN_POINT('Origin',(22.2,-16.2,3.5));
#1110=CARTESIAN_POINT('',(2.00000153691524,-29.3992848801827,3.5));
#1111=CARTESIAN_POINT('',(2.,-19.55,3.5));
#1112=CARTESIAN_POINT('',(2.03085526677734,-30.3992848801827,3.5));
#1113=CARTESIAN_POINT('Origin',(2.00000153691524,-29.8997608565059,3.5));
#1114=CARTESIAN_POINT('',(3.00000005960465,-30.3996424400914,3.5));
#1115=CARTESIAN_POINT('',(2.00000153691524,-30.3992848801827,3.5));
#1116=CARTESIAN_POINT('',(3.00000002980232,-22.7999076638536,3.5));
#1117=CARTESIAN_POINT('Origin',(0.,-23.0000000596046,0.));
#1118=CARTESIAN_POINT('',(2.,-23.0000000596046,6.4));
#1119=CARTESIAN_POINT('',(2.,-23.0000000596046,0.));
#1120=CARTESIAN_POINT('',(0.,-23.0000000596046,6.4));
#1121=CARTESIAN_POINT('',(0.,-23.0000000596046,6.4));
#1122=CARTESIAN_POINT('',(0.,-23.0000000596046,0.));
#1123=CARTESIAN_POINT('Origin',(0.,0.,0.));
#1124=CARTESIAN_POINT('',(0.,0.,6.4));
#1125=CARTESIAN_POINT('',(1.34815096107107E-32,-32.4,6.4));
#1126=CARTESIAN_POINT('',(0.,0.,1.));
#1127=CARTESIAN_POINT('',(0.,0.,0.));
#1128=CARTESIAN_POINT('',(6.74075480535533E-33,-32.4,1.));
#1129=CARTESIAN_POINT('',(0.,-8.1,1.));
#1130=CARTESIAN_POINT('',(0.,-32.4,6.4));
#1131=CARTESIAN_POINT('',(1.34815096107107E-32,-32.4,0.));
#1132=CARTESIAN_POINT('',(0.,-28.1996306554142,6.4));
#1133=CARTESIAN_POINT('',(1.34815096107107E-32,-32.4,6.4));
#1134=CARTESIAN_POINT('',(0.,-28.1996306554142,0.));
#1135=CARTESIAN_POINT('Origin',(42.4,-4.,6.4));
#1136=CARTESIAN_POINT('',(42.4,-4.,6.4));
#1137=CARTESIAN_POINT('',(44.4,-4.,6.4));
#1138=CARTESIAN_POINT('',(42.4,-3.99999999999999,6.4));
#1139=CARTESIAN_POINT('',(42.4,-4.,4.9));
#1140=CARTESIAN_POINT('',(42.4,-3.99999999999999,3.2));
#1141=CARTESIAN_POINT('',(44.4,-4.,4.9));
#1142=CARTESIAN_POINT('',(42.4,-4.,4.9));
#1143=CARTESIAN_POINT('',(44.4,-3.99999999999999,3.2));
#1144=CARTESIAN_POINT('Origin',(44.4,-7.,6.4));
#1145=CARTESIAN_POINT('',(44.4,-7.,6.4));
#1146=CARTESIAN_POINT('',(42.4,-7.,6.4));
#1147=CARTESIAN_POINT('',(43.4,-7.,6.4));
#1148=CARTESIAN_POINT('',(44.4,-7.,4.9));
#1149=CARTESIAN_POINT('',(44.4,-7.,3.2));
#1150=CARTESIAN_POINT('',(42.4,-7.,4.9));
#1151=CARTESIAN_POINT('',(44.4,-7.,4.9));
#1152=CARTESIAN_POINT('',(42.4,-7.,3.2));
#1153=CARTESIAN_POINT('Origin',(43.4,-5.5,4.9));
#1154=CARTESIAN_POINT('',(44.4,-18.95,4.9));
#1155=CARTESIAN_POINT('',(42.4,-16.8499996848404,4.9));
#1156=CARTESIAN_POINT('Origin',(42.4,-30.2999996848404,6.4));
#1157=CARTESIAN_POINT('',(44.4,0.,6.4));
#1158=CARTESIAN_POINT('',(44.4,1.34815096107107E-32,6.4));
#1159=CARTESIAN_POINT('',(32.9,0.,6.4));
#1160=CARTESIAN_POINT('',(0.,0.,6.4));
#1161=CARTESIAN_POINT('',(32.9,-2.,6.4));
#1162=CARTESIAN_POINT('',(32.9,-2.,6.4));
#1163=CARTESIAN_POINT('',(41.4,-2.,6.4));
#1164=CARTESIAN_POINT('',(40.4,-2.,6.4));
#1165=CARTESIAN_POINT('',(42.4,-3.,6.4));
#1166=CARTESIAN_POINT('Origin',(42.4,-2.,6.4));
#1167=CARTESIAN_POINT('',(42.4,-2.,6.4));
#1168=CARTESIAN_POINT('Origin',(42.4,-30.2999996848404,6.4));
#1169=CARTESIAN_POINT('',(42.4,-29.4000014439246,6.4));
#1170=CARTESIAN_POINT('',(42.4,-2.,6.4));
#1171=CARTESIAN_POINT('',(41.400002013893,-30.4,6.4));
#1172=CARTESIAN_POINT('Origin',(42.400002013892,-30.4000014439225,6.4));
#1173=CARTESIAN_POINT('',(31.4,-30.4,6.4));
#1174=CARTESIAN_POINT('',(42.4,-30.4,6.4));
#1175=CARTESIAN_POINT('',(31.4,-32.4,6.4));
#1176=CARTESIAN_POINT('',(31.4,-30.4,6.4));
#1177=CARTESIAN_POINT('',(44.4,-32.4,6.4));
#1178=CARTESIAN_POINT('',(40.4,-32.4,6.4));
#1179=CARTESIAN_POINT('',(44.4,1.34815096107107E-32,6.4));
#1180=CARTESIAN_POINT('Origin',(42.4,-28.1999993696809,0.));
#1181=CARTESIAN_POINT('',(42.4,-3.,3.5));
#1182=CARTESIAN_POINT('',(42.4,-3.,3.5));
#1183=CARTESIAN_POINT('',(42.4,-3.,1.));
#1184=CARTESIAN_POINT('',(42.4,-29.4000014439246,3.5));
#1185=CARTESIAN_POINT('Origin',(17.0000000596046,-2.,0.));
#1186=CARTESIAN_POINT('',(17.0000000596046,0.,6.4));
#1187=CARTESIAN_POINT('',(17.0000000596046,0.,0.));
#1188=CARTESIAN_POINT('',(17.0000000596046,-2.,6.4));
#1189=CARTESIAN_POINT('',(17.0000000596046,-2.,6.4));
#1190=CARTESIAN_POINT('',(17.0000000596046,-2.,0.));
#1191=CARTESIAN_POINT('Origin',(32.9,0.,0.));
#1192=CARTESIAN_POINT('',(32.9,-2.,0.));
#1193=CARTESIAN_POINT('',(32.9,0.,0.));
#1194=CARTESIAN_POINT('Origin',(44.4,-32.4,0.));
#1195=CARTESIAN_POINT('',(44.4,-32.4,1.));
#1196=CARTESIAN_POINT('',(44.4,-32.4,0.));
#1197=CARTESIAN_POINT('',(44.4,6.74075480535533E-33,1.));
#1198=CARTESIAN_POINT('',(44.4,-24.3,1.));
#1199=CARTESIAN_POINT('',(44.4,1.34815096107107E-32,0.));
#1200=CARTESIAN_POINT('Origin',(2.00000002980232,-2.00000002980232,6.4));
#1201=CARTESIAN_POINT('',(2.,-3.00000002980232,6.4));
#1202=CARTESIAN_POINT('',(3.00000002980232,-2.,6.4));
#1203=CARTESIAN_POINT('Origin',(2.00000002980232,-2.00000002980232,6.4));
#1204=CARTESIAN_POINT('',(2.,-2.,6.4));
#1205=CARTESIAN_POINT('',(4.00000005960464,0.,6.4));
#1206=CARTESIAN_POINT('',(2.,-4.00000005960464,6.4));
#1207=CARTESIAN_POINT('Origin',(2.00000153691524,-29.8997608565059,3.5));
#1208=CARTESIAN_POINT('',(2.00000153691524,-29.3992848801827,6.4));
#1209=CARTESIAN_POINT('',(2.,-29.3992848801851,3.5));
#1210=CARTESIAN_POINT('',(2.03085526677734,-30.3992848801827,6.4));
#1211=CARTESIAN_POINT('Origin',(2.00000153691524,-29.8997608565059,6.4));
#1212=CARTESIAN_POINT('',(2.03085526677734,-30.3992848801827,3.5));
#1213=CARTESIAN_POINT('Origin',(3.00000153691524,-30.3992848801827,3.5));
#1214=CARTESIAN_POINT('',(3.00000153691524,-30.3992848801827,6.4));
#1215=CARTESIAN_POINT('',(2.00000153691524,-30.3992848801827,6.4));
#1216=CARTESIAN_POINT('',(3.00000153691524,-30.3992848801827,3.5));
#1217=CARTESIAN_POINT('Origin',(3.00000005960464,-32.4,0.));
#1218=CARTESIAN_POINT('',(3.00000005960464,-32.4,6.4));
#1219=CARTESIAN_POINT('',(3.00000153691524,-30.3992848801827,6.4));
#1220=CARTESIAN_POINT('',(3.00000005960464,-32.4,0.));
#1221=CARTESIAN_POINT('Origin',(0.,-32.4,0.));
#1222=CARTESIAN_POINT('',(44.4,-32.4,6.4));
#1223=CARTESIAN_POINT('',(11.1,-32.4,1.));
#1224=CARTESIAN_POINT('',(31.4,-32.4,0.));
#1225=CARTESIAN_POINT('Origin',(2.00000002980232,-30.2998153277071,6.4));
#1226=CARTESIAN_POINT('',(2.,-28.1996306554142,6.4));
#1227=CARTESIAN_POINT('',(2.00000153691524,-31.3999992981553,6.4));
#1228=CARTESIAN_POINT('',(2.,-28.1996306554142,6.4));
#1229=CARTESIAN_POINT('Origin',(31.4,-30.4,0.));
#1230=CARTESIAN_POINT('',(31.4,-30.4,4.));
#1231=CARTESIAN_POINT('Origin',(42.4,-2.,3.5));
#1232=CARTESIAN_POINT('',(41.4,-2.,3.5));
#1233=CARTESIAN_POINT('',(41.4,-2.,3.5));
#1234=CARTESIAN_POINT('Origin',(42.4,-2.,3.5));
#1235=CARTESIAN_POINT('Origin',(2.00000002980232,-2.00000002980232,3.5));
#1236=CARTESIAN_POINT('',(2.,-3.00000002980232,3.5));
#1237=CARTESIAN_POINT('',(3.00000002980232,-2.00000002980232,3.5));
#1238=CARTESIAN_POINT('Origin',(42.400002013892,-30.4000014439225,3.5));
#1239=CARTESIAN_POINT('',(41.400002013893,-30.4,3.5));
#1240=CARTESIAN_POINT('Origin',(2.,-2.,0.));
#1241=CARTESIAN_POINT('Origin',(2.,-30.4,0.));
#1242=CARTESIAN_POINT('',(2.,-28.1996306554142,0.));
#1243=CARTESIAN_POINT('Origin',(41.4,-3.,2.));
#1244=CARTESIAN_POINT('',(41.4,-3.,3.5));
#1245=CARTESIAN_POINT('',(41.4,-3.,3.5));
#1246=CARTESIAN_POINT('',(41.4,-3.,2.));
#1247=CARTESIAN_POINT('Origin',(41.4,-2.,2.));
#1248=CARTESIAN_POINT('',(41.4,-2.,3.5));
#1249=CARTESIAN_POINT('',(41.4,-2.,1.));
#1250=CARTESIAN_POINT('Origin',(41.9,-2.5,3.5));
#1251=CARTESIAN_POINT('Origin',(36.4000000000001,-8.00000000000002,2.));
#1252=CARTESIAN_POINT('',(35.4000000000001,-8.00000000000002,3.5));
#1253=CARTESIAN_POINT('Origin',(36.4000000000001,-8.00000000000002,3.5));
#1254=CARTESIAN_POINT('',(35.4000000000001,-8.00000000000002,2.));
#1255=CARTESIAN_POINT('Origin',(36.4000000000001,-8.00000000000002,3.5));
#1256=CARTESIAN_POINT('Origin',(2.,-28.1996306554142,0.));
#1257=CARTESIAN_POINT('Origin',(42.4,-30.4,0.));
#1258=CARTESIAN_POINT('Origin',(40.4,-2.,0.));
#1259=CARTESIAN_POINT('Origin',(44.4,1.34815096107107E-32,0.));
#1260=CARTESIAN_POINT('',(33.3,0.,1.));
#1261=CARTESIAN_POINT('Origin',(22.2,-16.2,1.));
#1262=UNCERTAINTY_MEASURE_WITH_UNIT(LENGTH_MEASURE(0.01),#1266,
'DISTANCE_ACCURACY_VALUE',
'Maximum model space distance between geometric entities at asserted c
onnectivities');
#1263=UNCERTAINTY_MEASURE_WITH_UNIT(LENGTH_MEASURE(0.01),#1266,
'DISTANCE_ACCURACY_VALUE',
'Maximum model space distance between geometric entities at asserted c
onnectivities');
#1264=(
GEOMETRIC_REPRESENTATION_CONTEXT(3)
GLOBAL_UNCERTAINTY_ASSIGNED_CONTEXT((#1262))
GLOBAL_UNIT_ASSIGNED_CONTEXT((#1266,#1268,#1269))
REPRESENTATION_CONTEXT('','3D')
);
#1265=(
GEOMETRIC_REPRESENTATION_CONTEXT(3)
GLOBAL_UNCERTAINTY_ASSIGNED_CONTEXT((#1263))
GLOBAL_UNIT_ASSIGNED_CONTEXT((#1266,#1268,#1269))
REPRESENTATION_CONTEXT('','3D')
);
#1266=(
LENGTH_UNIT()
NAMED_UNIT(*)
SI_UNIT(.MILLI.,.METRE.)
);
#1267=(
LENGTH_UNIT()
NAMED_UNIT(*)
SI_UNIT($,.METRE.)
);
#1268=(
NAMED_UNIT(*)
PLANE_ANGLE_UNIT()
SI_UNIT($,.RADIAN.)
);
#1269=(
NAMED_UNIT(*)
SI_UNIT($,.STERADIAN.)
SOLID_ANGLE_UNIT()
);
#1270=SHAPE_DEFINITION_REPRESENTATION(#1271,#1272);
#1271=PRODUCT_DEFINITION_SHAPE('',$,#1274);
#1272=SHAPE_REPRESENTATION('',(#784),#1264);
#1273=PRODUCT_DEFINITION_CONTEXT('part definition',#1278,'design');
#1274=PRODUCT_DEFINITION('NanoVTXheatsink','NanoVTXheatsink v4',#1275,#1273);
#1275=PRODUCT_DEFINITION_FORMATION('',$,#1280);
#1276=PRODUCT_RELATED_PRODUCT_CATEGORY('NanoVTXheatsink v4',
'NanoVTXheatsink v4',(#1280));
#1277=APPLICATION_PROTOCOL_DEFINITION('international standard',
'automotive_design',2009,#1278);
#1278=APPLICATION_CONTEXT(
'Core Data for Automotive Mechanical Design Process');
#1279=PRODUCT_CONTEXT('part definition',#1278,'mechanical');
#1280=PRODUCT('NanoVTXheatsink','NanoVTXheatsink v4',$,(#1279));
#1281=PRESENTATION_STYLE_ASSIGNMENT((#1282));
#1282=SURFACE_STYLE_USAGE(.BOTH.,#1283);
#1283=SURFACE_SIDE_STYLE('',(#1284));
#1284=SURFACE_STYLE_FILL_AREA(#1285);
#1285=FILL_AREA_STYLE('Steel - Satin',(#1286));
#1286=FILL_AREA_STYLE_COLOUR('Steel - Satin',#1287);
#1287=COLOUR_RGB('Steel - Satin',0.627450980392157,0.627450980392157,0.627450980392157);
ENDSEC;
END-ISO-10303-21;
